<svg width="105" height="141" viewBox="0 0 105 141" fill="none" xmlns="http://www.w3.org/2000/svg">
<path d="M45.2784 0.688492C35.2054 3.89836 27.0749 15.8694 24.1535 31.7926C23.2254 36.8514 23.2144 49.8882 24.1337 54.8243C24.8955 58.912 25.9494 62.8607 26.2792 62.8607C26.4051 62.8607 26.8429 61.4539 27.2517 59.7349C28.6407 53.8945 32.1357 47.8514 36.3354 44.0277C38.0656 42.4525 39.8933 41.2101 41.7753 40.2855V27.2077L38.7772 24.3753C38.5325 24.463 38.2689 24.5108 37.9941 24.5108C36.709 24.5108 35.6672 23.4657 35.6672 22.1764C35.6672 20.8872 36.709 19.8421 37.9941 19.8421C39.2792 19.8421 40.321 20.8872 40.321 22.1764C40.321 22.4999 40.2554 22.808 40.1369 23.0881L43.265 26.2261C43.4286 26.3903 43.5205 26.613 43.5205 26.8451V39.5243C44.6722 39.0838 45.8388 38.757 47.0109 38.5407V19.3293L43.344 15.6507C43.1242 15.7197 42.8904 15.7569 42.6479 15.7569C41.3628 15.7569 40.321 14.7118 40.321 13.4226C40.321 12.1333 41.3628 11.0882 42.6479 11.0882C43.9331 11.0882 44.9749 12.1333 44.9749 13.4226C44.9749 13.84 44.8657 14.2318 44.6743 14.5709L48.5005 18.3477C48.6642 18.5118 48.7561 18.7345 48.7561 18.9667V38.3C49.9218 38.1932 51.0884 38.1934 52.2465 38.2974V18.9667C52.2465 18.7345 52.3384 18.5118 52.5021 18.3477L56.3283 14.5709C56.137 14.2318 56.0278 13.84 56.0278 13.4226C56.0278 12.1333 57.0696 11.0882 58.3547 11.0882C59.6398 11.0882 60.6816 12.1333 60.6816 13.4226C60.6816 14.7118 59.6398 15.7569 58.3547 15.7569C58.1122 15.7569 57.8784 15.7197 57.6586 15.6507L53.9917 19.3293V38.5337C54.9727 38.7116 55.9442 38.9641 56.9004 39.2894V26.8451C56.9004 26.613 56.9923 26.3903 57.1559 26.2261L60.284 23.0881C60.1655 22.808 60.0999 22.4999 60.0999 22.1764C60.0999 20.8872 61.1417 19.8421 62.4268 19.8421C63.7119 19.8421 64.7537 20.8872 64.7537 22.1764C64.7537 23.4657 63.7119 24.5108 62.4268 24.5108C62.152 24.5108 61.8884 24.463 61.6437 24.3753L58.6456 27.2077V39.9714C64.7915 42.6917 70.1247 48.4991 73.0125 56.824C73.6317 58.6093 74.2703 60.8257 74.4315 61.7494L74.7248 63.429L75.1972 62.2923C76.5276 59.0916 78.0136 49.0335 78.0258 43.1491C78.0436 34.2757 75.5136 23.2674 71.7577 15.8797C67.9334 8.35663 61.5631 2.31464 55.618 0.572177C52.8631 -0.235215 48.005 -0.180656 45.2784 0.688492Z" fill="#22AD5C"/>
<path d="M64.516 55.2391C64.6918 55.7908 64.5035 56.0113 63.6861 56.2094C61.7768 56.6724 59.8629 58.2452 58.0297 60.8579C54.3643 66.0808 51.112 68.2275 46.8233 68.254C42.6962 68.2798 39.1279 66.0349 37.484 62.3784L36.7652 60.7799L36.3628 64.5656L35.6131 63.3365C35.2009 62.6606 34.7578 62.1067 34.6288 62.1052C34.355 62.1025 34.5508 64.8987 34.9053 66.0505C35.1328 66.7889 35.0849 66.7809 34.15 65.9205C33.198 65.0442 33.152 65.0369 33.152 65.7689C33.152 66.191 33.3463 67.0916 33.5836 67.7702C33.9107 68.7049 33.9069 69.0709 33.5673 69.28C33.2493 69.4759 33.514 70.2977 34.4793 72.1102C35.2279 73.5151 36.1547 75.4614 36.5393 76.4352C36.9238 77.4085 37.3604 78.4936 37.5091 78.846C37.7206 79.3461 37.3566 79.7 35.8463 80.4622C34.7829 80.9991 33.9126 81.4966 33.9126 81.5678C33.9126 81.6391 34.8114 82.2904 35.9094 83.0155C42.3258 87.2506 51.0839 88.1543 58.2545 85.321C60.8054 84.3128 64.3399 82.2229 64.3399 81.7224C64.3399 81.5663 63.491 81.0101 62.4538 80.4865L60.5673 79.534L61.8647 77.3543C63.4846 74.6321 63.9372 72.6846 63.9554 68.3544C63.9748 63.8389 64.1631 63.1979 65.4323 63.3271C66.3964 63.4256 66.4284 63.3653 66.3398 61.6293C66.2515 59.9122 66.2937 59.8296 67.2545 59.8296C68.184 59.8296 68.216 59.7789 67.6721 59.1666C67.3481 58.8017 67.086 57.9993 67.0902 57.3828C67.094 56.7664 66.905 56.1981 66.6695 56.1196C66.4341 56.0416 66.2416 55.7544 66.2416 55.4816C66.2416 55.005 65.4498 54.5253 64.6636 54.5253C64.4575 54.5253 64.3909 54.8466 64.516 55.2391Z" fill="#22AD5C"/>
<path d="M59.5182 13.4226C59.5182 14.0672 58.9973 14.5897 58.3547 14.5897C57.7121 14.5897 57.1912 14.0672 57.1912 13.4226C57.1912 12.778 57.7121 12.2554 58.3547 12.2554C58.9973 12.2554 59.5182 12.778 59.5182 13.4226Z" fill="#22AD5C"/>
<path d="M42.6479 14.5897C42.0054 14.5897 41.4845 14.0672 41.4845 13.4226C41.4845 12.778 42.0054 12.2554 42.6479 12.2554C43.2905 12.2554 43.8114 12.778 43.8114 13.4226C43.8114 14.0672 43.2905 14.5897 42.6479 14.5897Z" fill="#22AD5C"/>
<path d="M62.4268 23.3436C62.2085 23.3436 62.0043 23.2833 61.8298 23.1784L61.6224 23.0197C61.4011 22.8072 61.2634 22.508 61.2634 22.1764C61.2634 21.5318 61.7842 21.0092 62.4268 21.0092C63.0694 21.0092 63.5903 21.5318 63.5903 22.1764C63.5903 22.821 63.0694 23.3436 62.4268 23.3436Z" fill="#22AD5C"/>
<path d="M38.7985 23.0197L38.5912 23.1784C38.4166 23.2833 38.2124 23.3436 37.9941 23.3436C37.3515 23.3436 36.8306 22.821 36.8306 22.1764C36.8306 21.5318 37.3515 21.0092 37.9941 21.0092C38.6366 21.0092 39.1575 21.5318 39.1575 22.1764C39.1575 22.508 39.0197 22.8072 38.7985 23.0197Z" fill="#22AD5C"/>
<path d="M9.36356 121.387H0V108.314H2.86678V118.772H9.36356V121.387Z" fill="#1A8245"/>
<path d="M19.8094 121.387H17.073V120.304C16.7255 120.69 16.3097 121.001 15.8257 121.237C15.3417 121.461 14.7522 121.573 14.0573 121.573C13.5857 121.573 13.1389 121.511 12.717 121.387C12.3074 121.25 11.9475 121.051 11.6373 120.789C11.327 120.528 11.0788 120.21 10.8926 119.837C10.7189 119.451 10.632 119.009 10.632 118.511V118.473C10.632 117.926 10.7313 117.453 10.9299 117.054C11.1284 116.656 11.4015 116.326 11.7489 116.064C12.1088 115.803 12.5308 115.61 13.0148 115.485C13.5112 115.349 14.0573 115.28 14.653 115.28C15.1618 115.28 15.6023 115.317 15.9747 115.392C16.3594 115.467 16.7317 115.566 17.0916 115.691V115.523C17.0916 114.925 16.9116 114.471 16.5517 114.16C16.1918 113.848 15.6582 113.693 14.9508 113.693C14.4048 113.693 13.9207 113.742 13.4988 113.842C13.0893 113.929 12.6549 114.06 12.1957 114.234L11.4883 112.068C12.0344 111.831 12.6053 111.638 13.201 111.489C13.7966 111.34 14.5164 111.265 15.3603 111.265C16.9116 111.265 18.041 111.645 18.7483 112.404C19.4557 113.164 19.8094 114.222 19.8094 115.579V121.387ZM17.1288 117.857V117.353C16.8806 117.241 16.6014 117.154 16.2911 117.091C15.9933 117.017 15.6706 116.979 15.3231 116.979C14.715 116.979 14.2372 117.098 13.8897 117.334C13.5422 117.571 13.3685 117.913 13.3685 118.361V118.399C13.3685 118.785 13.5112 119.083 13.7966 119.295C14.0821 119.507 14.4544 119.613 14.9136 119.613C15.5837 119.613 16.1174 119.451 16.5145 119.127C16.924 118.803 17.1288 118.38 17.1288 117.857Z" fill="#1A8245"/>
<path d="M31.7381 111.377L27.9034 121.629C27.7172 122.14 27.5186 122.569 27.3077 122.918C27.0967 123.279 26.8609 123.572 26.6003 123.796C26.3521 124.02 26.0666 124.182 25.744 124.281C25.4213 124.381 25.049 124.431 24.627 124.431C24.1058 124.431 23.6466 124.368 23.2495 124.244C22.8524 124.119 22.4739 123.951 22.114 123.74L23.0633 121.686C23.2495 121.798 23.4481 121.891 23.659 121.966C23.8824 122.04 24.0872 122.078 24.2733 122.078C24.5216 122.078 24.7139 122.028 24.8504 121.928C24.9993 121.841 25.1359 121.673 25.26 121.424L21.3507 111.377H24.3478L26.6189 118.193L28.7969 111.377H31.7381Z" fill="#1A8245"/>
<path d="M42.714 116.662C42.714 116.799 42.7078 116.917 42.6953 117.017C42.6953 117.116 42.6891 117.235 42.6767 117.372H35.7332C35.8697 118.019 36.1489 118.511 36.5709 118.847C37.0052 119.171 37.5389 119.332 38.1718 119.332C38.6434 119.332 39.0653 119.252 39.4376 119.09C39.81 118.928 40.1947 118.666 40.5918 118.305L42.2113 119.743C41.7398 120.328 41.1689 120.789 40.4987 121.125C39.8286 121.449 39.0405 121.611 38.1346 121.611C37.3899 121.611 36.695 121.486 36.0496 121.237C35.4167 120.988 34.8645 120.633 34.3929 120.173C33.9337 119.712 33.5738 119.171 33.3132 118.548C33.0526 117.913 32.9222 117.21 32.9222 116.438V116.401C32.9222 115.691 33.0401 115.019 33.2759 114.384C33.5241 113.749 33.8654 113.195 34.2998 112.722C34.7341 112.248 35.2492 111.875 35.8449 111.601C36.453 111.327 37.1231 111.19 37.8553 111.19C38.6868 111.19 39.4066 111.34 40.0147 111.638C40.6228 111.937 41.1254 112.342 41.5226 112.852C41.9321 113.35 42.23 113.929 42.4161 114.589C42.6147 115.236 42.714 115.915 42.714 116.625V116.662ZM39.9589 115.598C39.872 114.963 39.6486 114.452 39.2887 114.066C38.9288 113.668 38.451 113.469 37.8553 113.469C37.2596 113.469 36.7756 113.662 36.4033 114.047C36.0434 114.433 35.8076 114.95 35.6959 115.598H39.9589Z" fill="#1A8245"/>
<path d="M50.8355 114.16H50.6866C49.7434 114.16 48.9988 114.446 48.4527 115.019C47.9191 115.591 47.6523 116.481 47.6523 117.689V121.387H44.8227V111.377H47.6523V113.394C47.9377 112.709 48.3286 112.161 48.8251 111.75C49.3215 111.34 49.9916 111.153 50.8355 111.19V114.16Z" fill="#1A8245"/>
<path d="M65.3327 108.221L71.0663 121.387H68.6463L67.3246 118.231H61.1629L59.8226 121.387H57.477L63.2106 108.221H65.3327ZM66.4869 116.195L64.2344 110.966L62.0006 116.195H66.4869Z" fill="#1A8245"/>
<path d="M83.2043 116.457C83.2043 117.278 83.0739 118.007 82.8133 118.642C82.5651 119.276 82.2238 119.818 81.7895 120.266C81.3675 120.702 80.8773 121.032 80.3189 121.256C79.7728 121.48 79.2081 121.592 78.6249 121.592C77.8182 121.592 77.148 121.418 76.6144 121.069C76.0807 120.721 75.6402 120.316 75.2927 119.855V124.375H73.0402V111.526H75.2927V113.17C75.6526 112.647 76.0994 112.211 76.633 111.863C77.1666 111.501 77.8306 111.321 78.6249 111.321C79.2081 111.321 79.7728 111.433 80.3189 111.657C80.8649 111.881 81.3489 112.217 81.7709 112.666C82.2052 113.101 82.5527 113.637 82.8133 114.272C83.0739 114.907 83.2043 115.635 83.2043 116.457ZM80.9146 116.457C80.9146 115.971 80.8401 115.535 80.6912 115.149C80.5422 114.751 80.3375 114.415 80.0769 114.141C79.8287 113.867 79.5308 113.655 79.1833 113.506C78.8482 113.357 78.4883 113.282 78.1036 113.282C77.7189 113.282 77.3528 113.357 77.0053 113.506C76.6578 113.655 76.3538 113.873 76.0932 114.16C75.8326 114.433 75.6216 114.763 75.4602 115.149C75.3113 115.535 75.2369 115.971 75.2369 116.457C75.2369 116.942 75.3113 117.378 75.4602 117.764C75.6216 118.15 75.8326 118.486 76.0932 118.772C76.3538 119.046 76.6578 119.258 77.0053 119.407C77.3528 119.557 77.7189 119.631 78.1036 119.631C78.4883 119.631 78.8482 119.557 79.1833 119.407C79.5308 119.258 79.8287 119.046 80.0769 118.772C80.3375 118.498 80.5422 118.168 80.6912 117.782C80.8401 117.384 80.9146 116.942 80.9146 116.457Z" fill="#1A8245"/>
<path d="M95.6751 116.457C95.6751 117.278 95.5448 118.007 95.2842 118.642C95.036 119.276 94.6947 119.818 94.2604 120.266C93.8384 120.702 93.3482 121.032 92.7897 121.256C92.2437 121.48 91.679 121.592 91.0957 121.592C90.2891 121.592 89.6189 121.418 89.0853 121.069C88.5516 120.721 88.1111 120.316 87.7636 119.855V124.375H85.5111V111.526H87.7636V113.17C88.1235 112.647 88.5702 112.211 89.1039 111.863C89.6375 111.501 90.3015 111.321 91.0957 111.321C91.679 111.321 92.2437 111.433 92.7897 111.657C93.3358 111.881 93.8198 112.217 94.2417 112.666C94.6761 113.101 95.0236 113.637 95.2842 114.272C95.5448 114.907 95.6751 115.635 95.6751 116.457ZM93.3854 116.457C93.3854 115.971 93.311 115.535 93.162 115.149C93.0131 114.751 92.8084 114.415 92.5477 114.141C92.2995 113.867 92.0017 113.655 91.6542 113.506C91.3191 113.357 90.9592 113.282 90.5745 113.282C90.1898 113.282 89.8237 113.357 89.4762 113.506C89.1287 113.655 88.8247 113.873 88.564 114.16C88.3034 114.433 88.0925 114.763 87.9311 115.149C87.7822 115.535 87.7077 115.971 87.7077 116.457C87.7077 116.942 87.7822 117.378 87.9311 117.764C88.0925 118.15 88.3034 118.486 88.564 118.772C88.8247 119.046 89.1287 119.258 89.4762 119.407C89.8237 119.557 90.1898 119.631 90.5745 119.631C90.9592 119.631 91.3191 119.557 91.6542 119.407C92.0017 119.258 92.2995 119.046 92.5477 118.772C92.8084 118.498 93.0131 118.168 93.162 117.782C93.311 117.384 93.3854 116.942 93.3854 116.457Z" fill="#1A8245"/>
<path d="M105 118.473C105 118.996 104.907 119.451 104.721 119.837C104.535 120.223 104.274 120.546 103.939 120.808C103.616 121.057 103.232 121.25 102.785 121.387C102.338 121.511 101.86 121.573 101.351 121.573C100.644 121.573 99.9242 121.449 99.192 121.2C98.4722 120.951 97.802 120.584 97.1815 120.098L98.1868 118.567C98.7204 118.965 99.2603 119.27 99.8063 119.482C100.365 119.681 100.898 119.781 101.407 119.781C101.891 119.781 102.264 119.687 102.524 119.501C102.797 119.301 102.934 119.04 102.934 118.716V118.679C102.934 118.492 102.872 118.33 102.748 118.193C102.636 118.056 102.475 117.938 102.264 117.838C102.065 117.726 101.829 117.633 101.556 117.558C101.296 117.471 101.023 117.384 100.737 117.297C100.377 117.185 100.011 117.06 99.6388 116.923C99.2789 116.786 98.95 116.612 98.6521 116.401C98.3667 116.176 98.1309 115.909 97.9448 115.598C97.7586 115.274 97.6655 114.875 97.6655 114.402V114.365C97.6655 113.904 97.7524 113.487 97.9261 113.114C98.1123 112.74 98.3605 112.423 98.6708 112.161C98.9934 111.9 99.3657 111.701 99.7877 111.564C100.222 111.427 100.681 111.358 101.165 111.358C101.786 111.358 102.412 111.458 103.045 111.657C103.678 111.856 104.255 112.13 104.777 112.479L103.883 114.085C103.411 113.798 102.934 113.574 102.45 113.413C101.966 113.238 101.519 113.151 101.109 113.151C100.675 113.151 100.334 113.244 100.086 113.431C99.8497 113.618 99.7318 113.855 99.7318 114.141V114.178C99.7318 114.353 99.7939 114.508 99.918 114.645C100.042 114.77 100.203 114.888 100.402 115C100.613 115.1 100.849 115.199 101.109 115.299C101.382 115.386 101.662 115.473 101.947 115.56C102.307 115.672 102.667 115.803 103.027 115.952C103.387 116.102 103.709 116.288 103.995 116.513C104.293 116.724 104.535 116.986 104.721 117.297C104.907 117.608 105 117.988 105 118.436V118.473Z" fill="#1A8245"/>
<path d="M13.4031 137.06C13.4031 137.458 13.338 137.813 13.2076 138.124C13.0773 138.435 12.9036 138.7 12.6864 138.918C12.4754 139.129 12.2303 139.294 11.9511 139.413C11.6781 139.525 11.3957 139.581 11.1041 139.581C10.8807 139.581 10.6759 139.553 10.4898 139.497C10.3036 139.441 10.1361 139.366 9.98717 139.273C9.83825 139.179 9.70174 139.07 9.57764 138.946C9.45974 138.821 9.35425 138.691 9.26117 138.554V139.478H8.54448V132.662H9.26117V135.622C9.36046 135.478 9.46904 135.342 9.58694 135.211C9.71105 135.08 9.84756 134.968 9.99648 134.875C10.1454 134.775 10.3098 134.697 10.4898 134.641C10.6759 134.579 10.8807 134.548 11.1041 134.548C11.3895 134.548 11.6688 134.604 11.9418 134.716C12.221 134.828 12.4692 134.993 12.6864 135.211C12.9036 135.422 13.0773 135.684 13.2076 135.995C13.338 136.306 13.4031 136.661 13.4031 137.06ZM12.6678 137.069C12.6678 136.783 12.6213 136.524 12.5282 136.294C12.4413 136.064 12.3203 135.868 12.1652 135.706C12.0101 135.538 11.8301 135.41 11.6253 135.323C11.4206 135.236 11.2034 135.192 10.9738 135.192C10.7504 135.192 10.5332 135.239 10.3223 135.332C10.1175 135.419 9.93133 135.544 9.76379 135.706C9.60246 135.868 9.47215 136.064 9.37287 136.294C9.27979 136.524 9.23325 136.779 9.23325 137.06C9.23325 137.34 9.27979 137.598 9.37287 137.835C9.47215 138.065 9.60246 138.261 9.76379 138.423C9.93133 138.585 10.1175 138.712 10.3223 138.806C10.5332 138.893 10.7504 138.936 10.9738 138.936C11.2034 138.936 11.4206 138.896 11.6253 138.815C11.8363 138.728 12.0163 138.607 12.1652 138.451C12.3203 138.289 12.4413 138.093 12.5282 137.863C12.6213 137.626 12.6678 137.362 12.6678 137.069Z" fill="#1A8245"/>
<path d="M18.8544 134.651L16.8346 139.637C16.6298 140.135 16.4002 140.486 16.1458 140.692C15.8976 140.897 15.5936 141 15.2337 141C15.0351 141 14.8552 140.978 14.6938 140.935C14.5325 140.897 14.3712 140.838 14.2098 140.757L14.4518 140.188C14.5697 140.25 14.6845 140.293 14.7962 140.318C14.9141 140.35 15.0506 140.365 15.2057 140.365C15.4229 140.365 15.606 140.3 15.7549 140.169C15.9038 140.038 16.0496 139.802 16.1924 139.459L14.0051 134.651H14.7962L16.5461 138.675L18.0911 134.651H18.8544Z" fill="#1A8245"/>
<path d="M25.6455 133.222C25.4097 133.309 25.2422 133.418 25.1429 133.549C25.0498 133.673 25.0095 133.835 25.0219 134.034H25.357V135.015H24.51V134.174C24.51 133.795 24.5906 133.508 24.752 133.315C24.9195 133.116 25.1801 132.976 25.5338 132.895L25.6455 133.222ZM23.784 133.222C23.5482 133.309 23.3806 133.418 23.2813 133.549C23.1883 133.673 23.1479 133.835 23.1604 134.034H23.5047V135.015H22.6484V134.174C22.6484 133.795 22.7291 133.508 22.8904 133.315C23.058 133.116 23.3186 132.976 23.6723 132.895L23.784 133.222Z" fill="#1A8245"/>
<path d="M32.6292 138.442C32.4617 138.616 32.2848 138.775 32.0987 138.918C31.9187 139.055 31.7233 139.173 31.5123 139.273C31.3013 139.372 31.0748 139.45 30.8328 139.506C30.5908 139.562 30.3209 139.59 30.023 139.59C29.5515 139.59 29.1171 139.503 28.72 139.329C28.3228 139.154 27.9784 138.918 27.6868 138.619C27.3952 138.314 27.1656 137.956 26.998 137.545C26.8367 137.134 26.756 136.692 26.756 136.219C26.756 135.752 26.8367 135.314 26.998 134.903C27.1656 134.492 27.3952 134.134 27.6868 133.829C27.9784 133.518 28.3259 133.275 28.7293 133.101C29.1326 132.92 29.5732 132.83 30.051 132.83C30.3488 132.83 30.6156 132.855 30.8514 132.904C31.0934 132.954 31.3168 133.026 31.5216 133.119C31.7264 133.206 31.9156 133.315 32.0894 133.446C32.2631 133.571 32.4306 133.711 32.592 133.866L32.0894 134.408C31.8101 134.146 31.5092 133.932 31.1865 133.763C30.87 133.595 30.4884 133.511 30.0417 133.511C29.6818 133.511 29.3467 133.58 29.0364 133.717C28.7324 133.854 28.4656 134.044 28.236 134.286C28.0126 134.529 27.8357 134.816 27.7054 135.145C27.5813 135.469 27.5193 135.821 27.5193 136.201C27.5193 136.58 27.5813 136.935 27.7054 137.265C27.8357 137.595 28.0126 137.881 28.236 138.124C28.4656 138.367 28.7324 138.56 29.0364 138.703C29.3467 138.84 29.6818 138.908 30.0417 138.908C30.4884 138.908 30.8731 138.827 31.1958 138.666C31.5185 138.498 31.8349 138.264 32.1452 137.965L32.6292 138.442Z" fill="#1A8245"/>
<path d="M40.0917 136.201C40.0917 136.655 40.011 137.088 39.8497 137.498C39.6883 137.903 39.4618 138.261 39.1702 138.572C38.8786 138.884 38.528 139.133 38.1184 139.319C37.7089 139.5 37.2559 139.59 36.7595 139.59C36.2631 139.59 35.8101 139.5 35.4006 139.319C34.9972 139.139 34.6497 138.896 34.3581 138.591C34.0665 138.28 33.84 137.922 33.6786 137.517C33.5235 137.106 33.446 136.674 33.446 136.219C33.446 135.765 33.5266 135.335 33.688 134.931C33.8493 134.52 34.0758 134.159 34.3674 133.848C34.6591 133.536 35.0096 133.29 35.4192 133.11C35.8287 132.923 36.2817 132.83 36.7781 132.83C37.2745 132.83 37.7244 132.92 38.1277 133.101C38.5373 133.281 38.8879 133.527 39.1795 133.838C39.4711 134.143 39.6945 134.501 39.8497 134.912C40.011 135.317 40.0917 135.746 40.0917 136.201ZM39.3284 136.219C39.3284 135.846 39.2633 135.494 39.133 135.164C39.0089 134.834 38.832 134.548 38.6024 134.305C38.3728 134.062 38.0998 133.869 37.7833 133.726C37.4731 133.583 37.1318 133.511 36.7595 133.511C36.3872 133.511 36.0428 133.583 35.7263 133.726C35.4161 133.863 35.1493 134.053 34.9259 134.296C34.7025 134.538 34.5257 134.825 34.3953 135.155C34.2712 135.478 34.2092 135.827 34.2092 136.201C34.2092 136.574 34.2712 136.926 34.3953 137.256C34.5257 137.586 34.7056 137.872 34.9352 138.115C35.1648 138.358 35.4347 138.55 35.745 138.694C36.0614 138.837 36.4058 138.908 36.7781 138.908C37.1504 138.908 37.4917 138.84 37.802 138.703C38.1184 138.56 38.3883 138.367 38.6117 138.124C38.8351 137.881 39.0089 137.598 39.133 137.274C39.2633 136.944 39.3284 136.593 39.3284 136.219Z" fill="#1A8245"/>
<path d="M44.2765 135.799L47.1898 139.478H46.2683L43.7646 136.313L42.3777 137.723V139.478H41.6424V132.942H42.3777V136.845L46.1194 132.942H47.0688L44.2765 135.799Z" fill="#1A8245"/>
<path d="M53.7215 139.478H52.8186L50.9292 136.938H49.0676V139.478H48.3323V132.942H51.1339C51.4938 132.942 51.8165 132.988 52.102 133.082C52.3936 133.175 52.6418 133.309 52.8466 133.483C53.0513 133.651 53.2096 133.857 53.3213 134.1C53.433 134.336 53.4888 134.601 53.4888 134.893C53.4888 135.167 53.4454 135.413 53.3585 135.631C53.2716 135.843 53.1475 136.029 52.9862 136.191C52.8311 136.347 52.6449 136.478 52.4277 136.583C52.2105 136.689 51.9747 136.764 51.7203 136.807L53.7215 139.478ZM52.7442 134.921C52.7442 134.51 52.5984 134.193 52.3067 133.969C52.0151 133.739 51.6055 133.623 51.0781 133.623H49.0676V136.275H51.0688C51.3108 136.275 51.5342 136.244 51.7389 136.182C51.9437 136.12 52.1206 136.032 52.2695 135.92C52.4184 135.802 52.5332 135.659 52.6139 135.491C52.7007 135.323 52.7442 135.133 52.7442 134.921Z" fill="#1A8245"/>
<path d="M61.4158 136.201C61.4158 136.655 61.3351 137.088 61.1738 137.498C61.0124 137.903 60.7859 138.261 60.4943 138.572C60.2027 138.884 59.8521 139.133 59.4425 139.319C59.033 139.5 58.58 139.59 58.0836 139.59C57.5872 139.59 57.1342 139.5 56.7247 139.319C56.3214 139.139 55.9739 138.896 55.6822 138.591C55.3906 138.28 55.1641 137.922 55.0028 137.517C54.8476 137.106 54.7701 136.674 54.7701 136.219C54.7701 135.765 54.8507 135.335 55.0121 134.931C55.1734 134.52 55.3999 134.159 55.6915 133.848C55.9832 133.536 56.3338 133.29 56.7433 133.11C57.1528 132.923 57.6058 132.83 58.1022 132.83C58.5986 132.83 59.0485 132.92 59.4518 133.101C59.8614 133.281 60.212 133.527 60.5036 133.838C60.7953 134.143 61.0186 134.501 61.1738 134.912C61.3351 135.317 61.4158 135.746 61.4158 136.201ZM60.6525 136.219C60.6525 135.846 60.5874 135.494 60.4571 135.164C60.333 134.834 60.1561 134.548 59.9265 134.305C59.6969 134.062 59.4239 133.869 59.1075 133.726C58.7972 133.583 58.4559 133.511 58.0836 133.511C57.7113 133.511 57.3669 133.583 57.0505 133.726C56.7402 133.863 56.4734 134.053 56.25 134.296C56.0266 134.538 55.8498 134.825 55.7195 135.155C55.5953 135.478 55.5333 135.827 55.5333 136.201C55.5333 136.574 55.5953 136.926 55.7195 137.256C55.8498 137.586 56.0297 137.872 56.2593 138.115C56.4889 138.358 56.7588 138.55 57.0691 138.694C57.3855 138.837 57.7299 138.908 58.1022 138.908C58.4745 138.908 58.8158 138.84 59.1261 138.703C59.4425 138.56 59.7125 138.367 59.9358 138.124C60.1592 137.881 60.333 137.598 60.4571 137.274C60.5874 136.944 60.6525 136.593 60.6525 136.219Z" fill="#1A8245"/>
<path d="M70.4388 132.942V133.623H66.4923V135.958H70.02V136.63H66.4923V139.478H65.757V132.942H70.4388Z" fill="#1A8245"/>
<path d="M74.2193 132.895L77.1885 139.478H76.3973L75.6341 137.751H72.0879L71.3153 139.478H70.5614L73.5306 132.895H74.2193ZM75.3456 137.088L73.8656 133.754L72.3764 137.088H75.3456Z" fill="#1A8245"/>
<path d="M83.8625 139.478H82.9596L81.0702 136.938H79.2086V139.478H78.4733V132.942H81.2749C81.6348 132.942 81.9575 132.988 82.2429 133.082C82.5346 133.175 82.7828 133.309 82.9876 133.483C83.1923 133.651 83.3506 133.857 83.4622 134.1C83.5739 134.336 83.6298 134.601 83.6298 134.893C83.6298 135.167 83.5863 135.413 83.4995 135.631C83.4126 135.843 83.2885 136.029 83.1272 136.191C82.972 136.347 82.7859 136.478 82.5687 136.583C82.3515 136.689 82.1157 136.764 81.8613 136.807L83.8625 139.478ZM82.8852 134.921C82.8852 134.51 82.7393 134.193 82.4477 133.969C82.1561 133.739 81.7465 133.623 81.2191 133.623H79.2086V136.275H81.2098C81.4518 136.275 81.6752 136.244 81.8799 136.182C82.0847 136.12 82.2616 136.032 82.4105 135.92C82.5594 135.802 82.6742 135.659 82.7549 135.491C82.8417 135.323 82.8852 135.133 82.8852 134.921Z" fill="#1A8245"/>
<path d="M90.7005 134.184L88.327 137.685H88.2898L85.9163 134.193V139.478H85.1996V132.942H85.9442L88.3177 136.509L90.6911 132.942H91.4358V139.478H90.7005V134.184Z" fill="#1A8245"/>
<path d="M94.695 134.735C94.9308 134.647 95.0983 134.542 95.1976 134.417C95.2969 134.286 95.3372 134.121 95.3186 133.922H94.9835V132.942H95.8305V133.782C95.8305 134.162 95.7468 134.451 95.5792 134.651C95.4179 134.844 95.1604 134.98 94.8067 135.061L94.695 134.735ZM92.8335 134.735C93.0692 134.647 93.2368 134.542 93.3361 134.417C93.4353 134.286 93.4757 134.121 93.4571 133.922H93.122V132.942H93.9783V133.782C93.9783 134.162 93.8945 134.451 93.727 134.651C93.5594 134.844 93.2988 134.98 92.9451 135.061L92.8335 134.735Z" fill="#1A8245"/>
</svg>
